<svg id="Layer_1" data-name="Layer 1" xmlns="http://www.w3.org/2000/svg" viewBox="0 0 12 12"><defs><style>.cls-1,.cls-2{fill:#9c7b70;}.cls-1{fill-rule:evenodd;}</style></defs><title>Icon-Assembler.asm-Default</title><path class="cls-1" d="M303,296h5.76l3.24,3.24V307a1,1,0,0,1-1,1h-8a1,1,0,0,1-1-1V297A1,1,0,0,1,303,296Zm5,1h-5v10h8v-7Z" transform="translate(-302 -296)"/><path class="cls-2" d="M306.49,305l-.29-1.26h-1.3l-.29,1.26h-.93l1.24-5h1.26l1.24,5Zm-.46-2.08-.27-1.17c0-.07-.05-.24-.11-.53s-.08-.47-.1-.57c0,.2-.06.42-.11.65s-.16.77-.35,1.62Zm4.11.7a1.54,1.54,0,0,1-.35,1.08,1.38,1.38,0,0,1-1,.37,2.22,2.22,0,0,1-1.11-.26v-.92a1.85,1.85,0,0,0,1,.37.49.49,0,0,0,.4-.15.53.53,0,0,0,.14-.4.69.69,0,0,0-.16-.45,2.12,2.12,0,0,0-.53-.46,2.41,2.41,0,0,1-.49-.43,1.46,1.46,0,0,1-.25-.46,1.68,1.68,0,0,1-.09-.58,1.45,1.45,0,0,1,.35-1,1.27,1.27,0,0,1,1-.38,2.16,2.16,0,0,1,1.11.32l-.31.75a2.26,2.26,0,0,0-.35-.17.92.92,0,0,0-.38-.08.44.44,0,0,0-.35.15.63.63,0,0,0-.12.41.71.71,0,0,0,.15.44,2.21,2.21,0,0,0,.51.42,2.28,2.28,0,0,1,.68.67A1.55,1.55,0,0,1,310.14,303.62Z" transform="translate(-302 -296)"/></svg>
