<svg id="Layer_1" data-name="Layer 1" xmlns="http://www.w3.org/2000/svg" viewBox="0 0 12 12"><defs><style>.cls-1{fill:#96543f;fill-rule:evenodd;}</style></defs><title>Icon-Assembler.asm-NotSync</title><path class="cls-1" d="M303,296h5.76l3.24,3.24V307a1,1,0,0,1-1,1h-8a1,1,0,0,1-1-1v-3h1v3h8v-7l-3-3h-5v3h-1v-3A1,1,0,0,1,303,296Zm5.35,5.65-2.18-2.19a.5.5,0,0,0-.71.71l1.33,1.33H302.5a.5.5,0,0,0,0,1h4.29l-1.33,1.33a.5.5,0,0,0,.71.71l2.18-2.19A.48.48,0,0,0,308.35,301.65Z" transform="translate(-302 -296)"/></svg>
