<svg id="Layer_1" data-name="Layer 1" xmlns="http://www.w3.org/2000/svg" viewBox="0 0 12 12"><defs><style>.cls-1,.cls-2{fill:#7b9eb7;}.cls-1{fill-rule:evenodd;}</style></defs><title>Icon-COBOL.cbl-Default</title><path class="cls-1" d="M303,296h5.76l3.24,3.24V307a1,1,0,0,1-1,1h-8a1,1,0,0,1-1-1V297A1,1,0,0,1,303,296Zm5,1h-5v10h8v-7Z" transform="translate(-302 -296)"/><path class="cls-2" d="M305.7,300.75a.71.71,0,0,0-.63.46,3.11,3.11,0,0,0-.23,1.31c0,1.15.3,1.73.91,1.73a1.65,1.65,0,0,0,.83-.25v.83a1.68,1.68,0,0,1-.94.24,1.48,1.48,0,0,1-1.3-.67,4.13,4.13,0,0,1,0-3.79,1.49,1.49,0,0,1,1.3-.68,1.82,1.82,0,0,1,.52.08,1.89,1.89,0,0,1,.54.26l-.31.76a1.81,1.81,0,0,0-.33-.2A.79.79,0,0,0,305.7,300.75Zm1.59-.75h1.27a1.71,1.71,0,0,1,1.14.31,1.21,1.21,0,0,1,.35,1,1.3,1.3,0,0,1-.19.73.74.74,0,0,1-.51.35v0a1,1,0,0,1,.61.4,1.35,1.35,0,0,1,.19.77,1.52,1.52,0,0,1-.36,1.07,1.35,1.35,0,0,1-1,.38h-1.5Zm.87,2h.43a.49.49,0,0,0,.41-.15.78.78,0,0,0,.12-.47.48.48,0,0,0-.57-.58h-.39Zm0,.78v1.4h.47a.51.51,0,0,0,.43-.18.84.84,0,0,0,.14-.55c0-.45-.19-.67-.58-.67Z" transform="translate(-302 -296)"/></svg>
