<svg id="Layer_1" data-name="Layer 1" xmlns="http://www.w3.org/2000/svg" viewBox="0 0 13 11"><defs><style>.cls-1{fill:#fff;fill-rule:evenodd;}</style></defs><title>Icon-PO,PDS-notSync</title><path class="cls-1" d="M421.12,295H417v1h-1v-1a1,1,0,0,1,1-1h3.5l.72-1.45a1,1,0,0,1,.9-.55H428a1,1,0,0,1,1,1v9a1,1,0,0,1-1,1H417a1,1,0,0,1-1-1v-2h1v2h11v-9h-5.88l-.73,1.45Zm4.23,2.65-2.18-2.19a.5.5,0,0,0-.71.71l1.33,1.33H416.5a.5.5,0,0,0,0,1h7.29l-1.33,1.33a.5.5,0,0,0,.71.71l2.18-2.19A.48.48,0,0,0,425.35,297.65Z" transform="translate(-416 -292)"/></svg>