<svg width="12" height="12" viewBox="0 0 12 12" fill="none" xmlns="http://www.w3.org/2000/svg">
<path fill-rule="evenodd" clip-rule="evenodd" d="M2 1H10C10.5523 1 11 1.44772 11 2V10C11 10.5523 10.5523 11 10 11H2C1.44772 11 1 10.5523 1 10V2C1 1.44772 1.44772 1 2 1ZM0 2C0 0.895431 0.895431 0 2 0H10C11.1046 0 12 0.895431 12 2V10C12 11.1046 11.1046 12 10 12H2C0.895431 12 0 11.1046 0 10V2ZM3.40479 9V7.25H4.07471C4.5874 7.25 4.98844 7.10872 5.27783 6.82617C5.56722 6.54362 5.71191 6.15853 5.71191 5.6709C5.71191 5.18327 5.56494 4.78678 5.271 4.48145C4.97933 4.17611 4.5874 4.02344 4.09521 4.02344H2.3999V9H3.40479ZM4.09521 6.4126H3.40479V4.86084H4.10547C4.28548 4.86312 4.42904 4.93831 4.53613 5.08643C4.64323 5.23226 4.69678 5.42936 4.69678 5.67773C4.69678 5.91699 4.64437 6.09928 4.53955 6.22461C4.43473 6.34994 4.28662 6.4126 4.09521 6.4126ZM9.06357 8.51465C9.38031 8.14551 9.53867 7.62712 9.53867 6.95947V6.1084C9.53411 5.42708 9.37233 4.89844 9.05332 4.52246C8.73431 4.14421 8.29795 3.95508 7.74424 3.95508C7.18141 3.95508 6.74163 4.14762 6.4249 4.53271C6.10817 4.91553 5.9498 5.44873 5.9498 6.13232V6.9834C5.95436 7.64193 6.11615 8.15462 6.43516 8.52148C6.75417 8.88607 7.19281 9.06836 7.75107 9.06836C8.31162 9.06836 8.74912 8.88379 9.06357 8.51465ZM8.33896 5.12402C8.46657 5.34277 8.53037 5.6766 8.53037 6.12549V6.99023C8.52809 7.41406 8.46315 7.72738 8.33555 7.93018C8.20794 8.1307 8.01312 8.23096 7.75107 8.23096C7.47992 8.23096 7.27939 8.12842 7.14951 7.92334C7.01963 7.71598 6.95469 7.39469 6.95469 6.95947V6.07422C6.95924 5.64355 7.02533 5.3234 7.15293 5.11377C7.28053 4.90186 7.47764 4.7959 7.74424 4.7959C8.01312 4.7959 8.21136 4.90527 8.33896 5.12402Z" fill="#2C87C9"/>
</svg>
