<svg width="32" height="32" viewBox="0 0 93 92" fill="none" xmlns="http://www.w3.org/2000/svg">
<path fill-rule="evenodd" clip-rule="evenodd" d="M79.7402 25.0909C86.6689 25.0909 92.2857 19.4741 92.2857 12.5455C92.2857 5.61679 86.6689 0 79.7402 0C74.3087 0 69.6834 3.45167 67.9381 8.28117C64.3523 8.42695 60.1116 9.24565 56.2988 11.3351C50.6697 14.4198 46.2857 20.1439 46.2857 29.2728C46.2857 35.1984 43.7 38.1865 40.617 39.876C38.6055 40.9783 36.275 41.5656 34.1014 41.8011C33.795 41.7773 33.4924 41.7585 33.1941 41.7444C31.3116 34.5673 24.7806 29.2727 17.0129 29.2727C7.7747 29.2727 0.285641 36.7618 0.285645 46C0.285646 55.2382 7.77471 62.7273 17.0129 62.7273C24.7805 62.7273 31.3115 57.4328 33.194 50.2557C33.4923 50.2416 33.795 50.2229 34.1014 50.1991C36.275 50.4346 38.6055 51.0219 40.617 52.1242C43.7 53.8137 46.2857 56.8017 46.2857 62.7274C46.2857 71.8563 50.6697 77.5803 56.2988 80.6651C60.1116 82.7545 64.3524 83.5732 67.9381 83.719C69.6834 88.5484 74.3087 92 79.7402 92C86.6688 92 92.2856 86.3832 92.2856 79.4545C92.2856 72.5259 86.6688 66.9091 79.7402 66.9091C74.2513 66.9091 69.5858 70.434 67.8838 75.3436C65.4296 75.1982 62.6581 74.6129 60.3181 73.3306C57.2351 71.6411 54.6494 68.653 54.6494 62.7274C54.6494 57.4616 53.1907 53.3288 50.8758 50.1818H67.9086C69.6308 55.0544 74.2778 58.5454 79.7402 58.5454C86.6688 58.5454 92.2856 52.9287 92.2856 46C92.2856 39.0713 86.6688 33.4545 79.7402 33.4545C74.2778 33.4545 69.6308 36.9456 67.9086 41.8182H50.876C53.1908 38.6713 54.6494 34.5384 54.6494 29.2728C54.6494 23.3471 57.2351 20.3591 60.3181 18.6696C62.6581 17.3873 65.4297 16.802 67.8838 16.6566C69.5859 21.5661 74.2514 25.0909 79.7402 25.0909ZM79.7402 16.7273C82.0497 16.7273 83.922 14.855 83.922 12.5455C83.922 10.2359 82.0497 8.36363 79.7402 8.36363C77.4306 8.36363 75.5584 10.2359 75.5584 12.5455C75.5584 14.855 77.4306 16.7273 79.7402 16.7273ZM17.0129 37.6364C21.6321 37.6364 25.3766 41.3809 25.3766 46C25.3766 50.6191 21.6321 54.3636 17.0129 54.3636C12.3938 54.3636 8.64929 50.6191 8.64929 46C8.64929 41.3809 12.3938 37.6364 17.0129 37.6364ZM79.7402 83.6364C82.0497 83.6364 83.922 81.7641 83.922 79.4545C83.922 77.145 82.0497 75.2727 79.7402 75.2727C77.4306 75.2727 75.5583 77.145 75.5583 79.4545C75.5583 81.7641 77.4306 83.6364 79.7402 83.6364ZM83.922 46C83.922 48.3096 82.0497 50.1818 79.7402 50.1818C77.4306 50.1818 75.5583 48.3096 75.5583 46C75.5583 43.6904 77.4306 41.8182 79.7402 41.8182C82.0497 41.8182 83.922 43.6904 83.922 46Z" fill="#ADADAD"/>
</svg>
