<svg id="Layer_1" data-name="Layer 1" xmlns="http://www.w3.org/2000/svg" viewBox="0 0 12 12"><defs><style>.cls-1,.cls-2{fill:#2c8675;}.cls-1{fill-rule:evenodd;}</style></defs><title>Icon-Light-JCL-jcl-Defult</title><path class="cls-1" d="M394,290h5.76l3.24,3.24V301a1,1,0,0,1-1,1h-8a1,1,0,0,1-1-1V291A1,1,0,0,1,394,290Zm5,1h-5v10h8v-7Z" transform="translate(-393 -290)"/><path class="cls-2" d="M394.85,299.24a1.28,1.28,0,0,1-.49-.08v-.69a1.13,1.13,0,0,0,.36.06.38.38,0,0,0,.35-.16.74.74,0,0,0,.12-.46v-4.19H396v4.15a1.83,1.83,0,0,1-.14.73,1,1,0,0,1-.4.47A1.07,1.07,0,0,1,394.85,299.24Zm3.13-4.89a.61.61,0,0,0-.54.4,2.61,2.61,0,0,0-.2,1.12c0,1,.26,1.49.78,1.49a1.39,1.39,0,0,0,.71-.22v.71a1.42,1.42,0,0,1-.8.21,1.26,1.26,0,0,1-1.12-.58,2.94,2.94,0,0,1-.38-1.62,2.81,2.81,0,0,1,.4-1.62,1.25,1.25,0,0,1,1.11-.58,1.68,1.68,0,0,1,.45.06,1.64,1.64,0,0,1,.46.23l-.26.64a2.69,2.69,0,0,0-.29-.16A.69.69,0,0,0,398,294.35Zm1.18,3.65v-4.28H400v3.58h1.11v.7Z" transform="translate(-393 -290)"/></svg>
