<svg id="Layer_1" data-name="Layer 1" xmlns="http://www.w3.org/2000/svg" viewBox="0 0 12 12"><defs><style>.cls-1{fill:#0f66a6;fill-rule:evenodd;}</style></defs><title>Icon-Light-COBOL-cbl-NotSync</title><path class="cls-1" d="M394,290h5.76l3.24,3.24V301a1,1,0,0,1-1,1h-8a1,1,0,0,1-1-1v-3h1v3h8v-7l-3-3h-5v3h-1v-3A1,1,0,0,1,394,290Zm5.35,5.65-2.18-2.19a.5.5,0,0,0-.71.71l1.33,1.33H393.5a.5.5,0,0,0,0,1h4.29l-1.33,1.33a.5.5,0,0,0,.71.71l2.18-2.19A.48.48,0,0,0,399.35,295.65Z" transform="translate(-393 -290)"/></svg>
