<svg id="Layer_1" data-name="Layer 1" xmlns="http://www.w3.org/2000/svg" viewBox="0 0 13 11"><defs><style>.cls-1{fill:#3a3b3a;fill-rule:evenodd;}</style></defs><title>Icon-Light-PO,PDS-NotSync</title><path class="cls-1" d="M420.12,296H416v1h-1v-1a1,1,0,0,1,1-1h3.5l.72-1.45a1,1,0,0,1,.9-.55H427a1,1,0,0,1,1,1v9a1,1,0,0,1-1,1H416a1,1,0,0,1-1-1v-2h1v2h11v-9h-5.88l-.73,1.45Zm4.23,2.65-2.18-2.19a.5.5,0,0,0-.71.71l1.33,1.33H415.5a.5.5,0,0,0,0,1h7.29l-1.33,1.33a.5.5,0,0,0,.71.71l2.18-2.19A.48.48,0,0,0,424.35,298.65Z" transform="translate(-415 -293)"/></svg>